<?xml version="1.0"?><svg width="1052.3622" height="580" xmlns="http://www.w3.org/2000/svg">
 <title>World Map</title>

 <metadata id="metadata7">image/svg+xmlWorld map27 11 2005Lumen Design StudioworldmapcontinentcontinentscountriescountrygeographyplanetearthafricaasiaeuropeaustraliaamericaamericasWorld map</metadata>
 <g>
  <title>Layer 1</title>
  <path fill="#ff0000" stroke="#000000" id="path3726" d="m279.412537,13.02947c-0.662506,0.04124 -1.114166,0.1753 -1.229279,0.36154c-0.306915,0.49665 -1.557556,0.61939 -2.820068,0.28924c-1.262512,-0.33017 -3.215485,-0.20102 -4.338593,0.28924c-1.123047,0.49026 -2.639374,0.79858 -3.362396,0.68694c-1.241608,-0.1917 -2.990723,2.52229 -3.253906,5.06169c-0.065979,0.636379 -2.317108,0.999109 -5.025543,0.79541c-3.608109,-0.27137 -4.859558,0.03784 -4.627808,1.15695c0.208023,1.004559 -0.943558,1.545549 -3.39856,1.590809c-2.052887,0.037861 -4.079956,0.42832 -4.519348,0.86772c-0.439392,0.439402 -2.67305,0.85626 -4.953217,0.940022l-4.157806,0.144619l4.049332,0.723101c2.227142,0.393469 3.789032,1.08967 3.470871,1.554659c-0.318161,0.464991 0.601761,1.68964 2.060822,2.711611c2.040817,1.42944 3.026337,1.571369 4.266266,0.54232c1.079315,-0.89575 2.318634,-0.991621 3.723953,-0.25308c5.397995,2.836769 11.239365,2.716782 17.028915,-0.361549c3.97702,-2.114601 6.044495,-2.632671 6.905579,-1.771591c1.8591,1.85907 -1.146851,4.029652 -9.111023,6.652481c-5.0896,1.67617 -7.612488,1.98695 -9.472565,1.156971c-2.701935,-1.20565 -6.146317,-0.452511 -6.146317,1.337719c0,1.832119 8.239609,6.052071 10.448746,5.35091c2.712128,-0.86079 3.885559,1.0718 1.735443,2.856239c-2.38031,1.975471 -13.919617,0.089241 -13.919617,-2.27776c0,-0.948509 -0.901596,-2.404961 -1.98851,-3.21777c-1.086899,-0.812832 -1.671143,-2.2547 -1.301575,-3.217781c0.369583,-0.9631 0.229919,-1.64555 -0.325394,-1.518509c-1.190231,0.272289 -4.921844,-1.002621 -7.375595,-2.53083c-3.442764,-2.14418 -4.656876,-2.48735 -6.616318,-1.735441c-1.706635,0.654911 -1.748123,0.921301 -0.289246,1.843901c1.691376,1.06963 1.379654,1.269291 -2.639297,1.590801c-0.79541,0.063648 -2.055359,0.874538 -2.78392,1.807739c-1.674591,2.145031 1.139557,4.547779 5.38707,4.627831c1.590805,0.029968 3.673325,0.58556 4.627823,1.1931c1.357285,0.86393 0.90921,1.267128 -2.133148,1.880058c-3.126373,0.629852 -3.54335,0.993992 -2.024673,1.843891c1.039276,0.581619 1.598358,1.535919 1.229263,2.133141c-0.374313,0.605659 1.313019,1.084648 3.832428,1.084648c3.0448,0.000011 5.207199,-0.756828 6.616318,-2.313908c1.60405,-1.772461 2.444839,-2.013901 3.651642,-1.012341c0.864975,0.717869 3.141541,2.15184 5.061676,3.181629c1.920151,1.029789 3.592209,2.400681 3.68779,3.036991c0.293396,1.953068 -3.603622,2.000389 -5.531677,0.072319c-1.000946,-1.00095 -1.295013,-1.807739 -0.650787,-1.807739c0.644226,0 1.486771,0.52063 1.880051,1.15696c0.393265,0.63633 1.580765,1.15694 2.639297,1.15694c1.485809,0.000019 1.306091,-0.43343 -0.759247,-1.880039c-2.209503,-1.547611 -3.19136,-1.618721 -5.712463,-0.470013c-2.736603,1.246861 -2.862839,1.51548 -1.048492,2.530842c2.120712,1.18679 1.678757,3.320499 -0.686935,3.290089c-0.827942,-0.010651 -0.681213,-0.483078 0.361542,-1.15696c0.954483,-0.616829 1.214798,-1.1208 0.578476,-1.1208c-1.898209,0 -4.621368,2.103439 -3.796249,2.928539c0.421051,0.421032 5.297607,0.947002 10.84642,1.193111c5.548828,0.246109 10.379913,0.726551 10.701843,1.048489c0.825409,0.82542 1.282501,0.767281 5.604004,-0.795399c3.981628,-1.439781 5.400848,-3.44376 1.771576,-2.49469c-2.871307,0.75087 -8.651215,-1.644112 -7.700958,-3.181622c0.426422,-0.689968 2.027618,-0.931778 3.579315,-0.542328c1.669861,0.419109 4.346191,-0.082661 6.544037,-1.229259c2.039703,-1.064121 4.434296,-2.279301 5.350922,-2.711613c0.916626,-0.432308 1.889343,-1.474159 2.169281,-2.313908c0.368958,-1.106922 -0.26828,-1.317902 -2.350067,-0.79541c-1.579315,0.396389 -3.208374,0.37096 -3.615479,-0.036152c-1.313477,-1.313469 1.760254,-3.832409 4.663971,-3.832409c1.550446,0 2.499207,-0.49231 2.133118,-1.08466c-1.181061,-1.91098 1.270874,-2.33474 5.061676,-0.903862c3.039795,1.147392 3.860901,1.10482 4.700134,-0.253078c0.560699,-0.907219 5.108673,-3.64349 10.087189,-6.037861c4.978546,-2.39439 8.444336,-4.344389 7.700989,-4.374729c-0.743378,-0.03035 -2.305267,-0.381071 -3.470856,-0.759251c-1.573639,-0.510571 -1.735107,-0.39337 -0.578491,0.433851c1.189545,0.85075 0.727692,1.403198 -1.988495,2.350069c-3.722565,1.297701 -5.789459,0.153101 -3.326263,-1.843901c0.788391,-0.639179 3.789032,-1.9289 6.652496,-2.89238c6.913055,-2.32608 11.56955,-4.499659 11.56955,-5.38707c0,-0.39699 -1.431732,-1.56414 -3.181641,-2.566999c-2.303986,-1.320421 -4.139038,-1.54841 -6.652466,-0.83156c-3.826721,1.091379 -6.88916,0.476789 -5.857086,-1.19311c0.984039,-1.592219 -4.898651,-2.5371 -11.714172,-1.880059c-3.299652,0.31811 -8.363922,0.110979 -11.280304,-0.433861c-1.458221,-0.272409 -2.878662,-0.41797 -3.940887,-0.433849c-0.265564,-0.00397 -0.502258,-0.01375 -0.723083,0z"/>
  <path fill="#ff0000" stroke="#000000" id="path3724" d="m389.431671,13.02947c-3.093811,0.032189 -5.304657,0.62122 -4.77243,1.48234c1.331604,2.1546 -2.630157,2.491489 -6.399414,0.54233c-2.81427,-1.45531 -4.375854,-1.6483 -6.327087,-0.75925c-1.781891,0.811879 -2.99234,0.80392 -3.832428,-0.03616c-1.607635,-1.60766 -4.844727,-0.2994 -4.844727,1.95237c0,2.329531 1.88028,2.28257 2.783905,-0.072309c0.610077,-1.58986 1.097839,-1.48722 3.507019,0.83156c1.891907,1.820879 2.444763,3.151079 1.69928,4.049339c-0.951935,1.147051 -6.798279,1.313511 -12.618042,0.361551c-4.364563,-0.713921 -8.016724,0.122728 -7.411713,1.69928c0.901154,2.34844 -1.321655,3.288719 -3.000854,1.265419c-1.7276,-2.08165 -3.581329,-2.27709 -3.181641,-0.325399c0.20813,1.01631 -1.657501,1.3304 -6.652496,1.08465c-6.605591,-0.32501 -14.294312,1.90303 -12.545715,3.65164c1.154968,1.154961 -2.124542,4.437761 -3.796265,3.796251c-0.832153,-0.319332 -1.810364,-0.110741 -2.169281,0.470009c-0.358917,0.580761 -1.304626,0.81023 -2.096985,0.506161c-1.894562,-0.72699 -10.71283,3.560249 -9.219482,4.4832c0.633118,0.391319 2.781464,0.245609 4.772461,-0.325382c4.76767,-1.367359 5.580841,0.1856 2.350037,4.555511c-1.787079,2.417149 -3.582397,3.507019 -5.78476,3.507019c-1.75174,0.000011 -3.505035,0.546402 -3.904724,1.1931c-0.399689,0.646709 -1.239105,0.843811 -1.843903,0.47002c-1.446075,-0.893749 -9.147156,1.662109 -9.147156,3.036991c0,1.073978 1.401581,1.3274 9.725647,1.554668c2.495789,0.068111 4.759399,0.758251 5.025513,1.554661c0.5336,1.596779 -0.422516,2.01833 -7.230957,3.253929c-4.157349,0.75449 -4.333771,0.918282 -1.735443,1.590801c1.59082,0.41177 2.63208,1.19194 2.313904,1.735451c-0.863495,1.475079 3.706696,2.774788 6.363251,1.807739c1.272644,-0.46328 6.44574,-0.92453 11.497253,-1.048489c5.051483,-0.123962 9.597931,-0.493042 10.087189,-0.79541c0.489258,-0.302361 1.61441,0.903259 2.530823,2.675449c0.916473,1.772217 2.783875,4.212532 4.121674,5.423225c1.337799,1.210701 2.422363,2.82209 2.422363,3.57933c0,0.75724 0.994995,2.266953 2.205444,3.362396c1.531952,1.386383 2.035431,3.024704 1.663116,5.38707c-0.615112,3.903015 1.330475,4.664597 2.313904,0.90387c0.531281,-2.031525 0.959961,-2.244484 2.313934,-1.120796c3.949829,3.278061 2.941498,7.321327 -2.133148,8.568687c-1.587402,0.390182 -1.191101,0.594879 1.265411,0.686943c1.969452,0.073822 4.437286,1.108391 5.495544,2.277756c1.800903,1.990021 1.802917,2.271301 -0.361542,4.230125c-2.179169,1.972115 -2.223175,2.14904 -0.325409,3.543175c1.846619,1.356537 1.760376,1.597755 -1.156952,2.711609c-1.749878,0.668106 -3.18161,1.800858 -3.18161,2.530838c0,0.965874 0.473206,0.945213 1.699249,-0.072311c2.687897,-2.230759 4.587341,-0.205788 2.241608,2.386223c-1.094574,1.209473 -1.515869,2.221359 -0.940002,2.2416c0.575867,0.020248 0.103149,0.753807 -1.048492,1.626961c-1.348785,1.022621 -1.633575,1.854408 -0.831573,2.350067c0.684814,0.423218 0.884552,1.381691 0.433838,2.133133c-0.524292,0.874199 -0.174255,0.816689 1.01236,-0.144623c2.100403,-1.701546 3.569702,-0.335899 2.133118,1.988518c-0.599579,0.970161 0.227661,3.289391 2.277771,6.327095c4.489105,6.651596 7.669647,9.302277 11.316467,9.364105c1.71521,0.029083 3.174377,0.686935 3.253906,1.482346c0.079559,0.79541 0.209717,1.742844 0.289246,2.096985c0.307281,1.368057 7.109863,-3.563721 7.230988,-5.242462c0.070404,-0.976349 0.035675,-2.895309 -0.072327,-4.266266c-0.108002,-1.370949 0.33844,-2.837433 1.012329,-3.253929c0.67392,-0.416489 1.229279,-1.711372 1.229279,-2.892387c0,-2.490295 10.171997,-11.880409 11.786469,-10.882607c0.597015,0.368996 2.58606,0.032776 4.410889,-0.723099c3.27298,-1.355705 4.879181,-3.548347 5.097839,-6.941727c0.061493,-0.954468 0.759247,-1.60527 1.554657,-1.44619c0.79541,0.159088 2.474304,-0.738861 3.723938,-1.988518c1.811798,-1.81176 3.761444,-2.2323 9.581024,-2.133141c4.48645,0.076454 8.619965,-0.579765 10.738007,-1.663116c1.895081,-0.969254 5.256897,-2.171333 7.484039,-2.675453l4.049347,-0.90387l-4.049347,-0.903877c-2.227142,-0.489098 -5.145569,-0.5849 -6.507874,-0.25309c-2.923859,0.712112 -4.868286,-1.617447 -2.205444,-2.639297c1.006104,-0.386063 1.688812,-1.561996 1.518494,-2.603142c-0.214966,-1.313354 0.697784,-1.98185 2.964691,-2.2416c2.509125,-0.287468 3.38681,0.182571 3.868591,2.024666c0.766815,2.932693 3.832397,3.191071 3.832397,0.325394c0,-2.696548 -6.280975,-6.403503 -9.255615,-5.459373c-3.152496,1.000526 -5.100983,-0.342354 -3.434723,-2.35006c0.988281,-1.190857 0.700989,-1.825737 -1.156952,-2.820091c-3.304138,-1.768326 -1.717896,-3.806129 2.27774,-2.928535c2.639374,0.579697 3.212921,0.339867 3.073181,-1.33773c-0.244598,-2.935493 3.760315,-2.69783 7.737122,0.470016c1.798706,1.432816 4.122864,2.603134 5.170135,2.603134c1.475708,0.000015 1.320831,-0.401443 -0.686951,-1.807724c-3.288147,-2.303177 -2.310242,-3.977036 2.350067,-3.977036c3.434662,0.000015 3.502441,-0.089264 1.373901,-1.69928c-1.235199,-0.934235 -1.720978,-1.784531 -1.084656,-1.880051c0.636322,-0.095528 -0.368713,-0.501907 -2.241608,-0.903866c-4.428467,-0.950401 -4.467804,-2.820202 -0.072296,-3.760101l3.470856,-0.723099l-3.687805,-0.14463c-2.030548,-0.075291 -4.001251,-0.624851 -4.374725,-1.229252c-1.134155,-1.835098 3.573669,-3.58046 7.556366,-2.783928c2.793457,0.558701 3.544434,0.404221 2.892395,-0.65078c-0.480835,-0.777981 -1.144165,-1.13353 -1.482361,-0.79541c-1.130341,1.13044 -5.141266,-1.79977 -4.555511,-3.326241c0.317719,-0.828152 0.003296,-2.05756 -0.68692,-2.74778c-0.901978,-0.901951 -0.3703,-1.580509 1.843872,-2.422359c1.694489,-0.644222 3.073181,-1.95377 3.073181,-2.892391c-0.000031,-0.93861 0.911102,-2.25658 2.024658,-2.964691c1.712616,-1.089088 1.569916,-1.220238 -0.976196,-0.686939c-3.60495,0.755081 -4.987427,-0.25386 -3.217773,-2.386219c0.718811,-0.866192 3.53775,-1.554661 6.363251,-1.554661c3.385376,0.000011 4.96579,-0.46172 4.772461,-1.410049c-0.159088,-0.780281 0.90155,-1.62324 2.350037,-1.84388c1.448517,-0.220652 3.978394,-1.072842 5.604004,-1.91621l2.928558,-1.518501l-4.627808,-0.79541c-2.549255,-0.430698 -5.563599,-0.294039 -6.724823,0.325392c-2.935181,1.565779 -7.619507,2.06209 -9.364105,0.976179c-0.806824,-0.502239 -3.013977,-0.153959 -4.917053,0.79541c-3.381409,1.68688 -5.521851,0.85029 -4.013184,-1.590811c0.501648,-0.811789 -2.036926,-1.104189 -7.737122,-0.83156c-6.19574,0.296341 -10.443146,1.310921 -15.691193,3.68779c-4.129822,1.870401 -8.015625,2.928902 -9.147186,2.494682c-2.852814,-1.094721 -1.079742,-2.371832 9.002563,-6.399401c5.726288,-2.287491 10.931671,-3.543171 14.6427,-3.543171c3.161713,0.00001 7.476013,-0.79221 9.617188,-1.771589l3.904724,-1.771591l-6.544037,0.686941c-6.8479,0.72562 -9.574829,-0.62887 -5.929382,-2.928541c2.311371,-1.458039 -8.703979,-0.881549 -21.005951,1.08465c-3.781525,0.60438 -7.348785,0.785591 -7.917908,0.433861c-1.722626,-1.06465 1.072571,-2.95339 5.748627,-3.90474c4.01767,-0.81741 3.811462,-0.900849 -2.530853,-0.94002c-3.817963,-0.023601 -7.983002,-0.150021 -9.255646,-0.28924c-1.157593,-0.126631 -2.294983,-0.19151 -3.326233,-0.18077z"/>
  <path fill="#ff0000" stroke="#000000" id="path3712" d="m331.222412,26.26214c1.57666,0.010201 3.189636,1.06712 2.530823,2.133141c-0.904266,1.46312 -3.708618,1.501089 -4.591675,0.072309c-0.366089,-0.59236 -0.098694,-1.425381 0.578491,-1.843901c0.42807,-0.264559 0.956787,-0.36495 1.482361,-0.361549z"/>
  <path fill="#7f007f" id="path3644" d="m793.46875,50.96875c-6.036133,15.433609 -27.023682,9.163788 -42.995911,13.65242c-13.906006,0.738113 2.082275,14.552551 -15.254089,8.41008c-19.468018,-4.727936 10.977539,20.726929 -3.25,13.03125c-1.967407,-8.120575 -24.526306,-8.869705 -10.837891,0.448395c-8.208984,-2.126175 -14.012207,-15.148026 -12.708679,1.441513c-0.393677,5.484085 22.614685,14.656509 11.283386,16.86972c-5.448059,-22.040161 -18.990173,17.83667 -24.964355,0.216537c15.404907,9.206192 13.267517,-39.603745 0.415039,-25.819916c-13.945557,5.380814 10.188538,26.154877 -9.514404,15.772385c-9.455627,-5.353195 -19.248535,6.216034 -20.923096,1.165115c-12.056335,5.26416 -22.663818,1.265045 -34.936279,10.529358c2.748718,-5.145111 -9.316223,-13.409836 -4.38092,-0.192093c-6.020935,3.125626 -14.119019,12.339203 -21.156128,8.986282c7.854919,16.216599 -25.122864,-17.888901 -2.647827,-6.946777c29.634155,2.680283 -4.422302,-19.959732 -16.62616,-15.675293c-2.993408,-3.21434 2.472778,-4.831818 -7.232971,-6.187256c-3.054749,4.408035 -7.620483,-5.409454 -11.750916,2.89122c-6.629822,-0.442551 -9.965576,4.304932 -17.831299,6.250809c-2.323853,8.61322 -13.279236,12.835678 -19.134399,18.680389c8.430237,12.23317 -21.864685,7.897461 -12.178101,26.694611c4.389771,9.755554 17.850525,-11.481522 17.65625,9.28125c5.55011,14.736847 22.578003,-9.077545 14.46814,-16.75647c2.192505,-8.961182 12.503296,-23.806305 21.37561,-21.43103c-4.05957,6.495346 -18.849426,31.118729 2.483154,22.929703c18.473755,-1.468719 5.773926,7.384613 -5.25592,5.993515c2.640259,9.588409 -0.056946,9.536987 -7.042664,10.416443c-1.394592,13.161469 -27.612732,17.165527 -33.49707,6.410339c-1.539551,-16.264465 1.356995,14.531311 -10.875,9.59375c-7.336487,6.755829 -17.65918,17.148254 -28.296936,18.468567c8.627258,4.976074 12.670959,27.879486 -6.265869,19.992218c-18.661682,0.1091 -5.561829,37.443024 11.89325,22.211273c7.44928,-11.293396 23.244873,-35.224304 37.720703,-18.736877c10.017761,1.727936 16.384766,26.100159 16.540833,7.952301c5.509949,5.2034 -26.806702,-25.963531 -7.436829,-18.046112c10.588684,6.114716 21.561279,31.319183 23.782349,24.53363c-1.002991,4.605286 -5.228821,9.766754 3.786621,2.02356c-12.562866,-13.438843 18.362244,-5.499359 12.497681,-22.605438c5.972656,-13.999817 12.25592,-7.863647 18.863403,-3.164459c-7.52832,-7.799194 15.796082,-12.262482 7.12616,-0.404205c14.348022,5.636047 11.336121,21.88562 -5.023865,13.306793c-11.181885,-5.908539 -37.970459,8.796448 -19.0625,18.25c14.031372,-3.213867 24.73053,0.240448 14.991699,16.30304c-8.29248,9.994232 -46.530029,8.704437 -40.563232,26.845947c18.072693,5.963013 33.616211,-22.078735 42.665283,-13.617737c7.958252,17.56543 18.9375,32.423431 23.302917,51.910339c16.499146,-2.532501 37.711731,-13.329773 45.248047,-30.015686c-7.946777,-5.653046 -8.553162,-18.323334 -17.129883,-6.249695c-12.528931,4.847534 -22.146606,-37.623627 -4.524109,-14.547333c14.11145,11.400757 42.084106,5.473236 50.790527,20.464874c-1.339844,10.001312 10.276855,-7.932587 7.4375,6.5625c0.395813,11.544373 7.673828,37.357208 15.271667,39.200623c1.927551,-20.413727 15.032593,-39.351868 34.665833,-46.013123c12.55365,1.725891 7.898254,27.653748 20.501648,19.97403c0.517822,21.429352 5.884644,14.488586 16.404602,16.24472c1.147217,15.525879 17.356384,5.994385 15.933899,-4.200104c-2.948486,-11.123932 -16.408081,-31.5242 2.972351,-28.424896c13.057983,-2.814575 36.675537,-17.254883 29.741943,-30.977936c7.057617,-4.35025 -11.792419,-20.401764 6.111938,-25.812775c0.263306,0.543152 -25.121277,-1.523773 -8.70282,-10.242462c13.594788,-10.541504 -0.421265,12.229645 10.419922,0.602295c10.707275,-1.746246 8.569885,30.782593 16.502319,12.397034c-9.85437,-9.843109 2.138062,-25.671753 12.508423,-24.578369c13.275391,-4.863434 34.060974,-45.196106 10.652893,-43.117401c-12.190918,-10.874512 19.358154,-28.748886 31.968994,-23.92627c14.173828,3.837891 18.572876,-3.575516 30.015137,-10.906616c8.87207,-0.166336 -2.242065,11.796967 10.376709,1.625595c12.671021,-12.248581 -8.114258,14.608719 -15.157959,16.655655c-9.187988,6.320618 -5.867554,38.732422 5.746826,19.311615c2.998779,-9.328094 12.531616,-12.118774 7.410034,-23.14537c9.295776,-14.827896 28.420776,-4.702377 41.507202,-16.824203c18.015747,2.681732 -14.267944,-18.258392 7.749023,-11.444397c2.506592,-17.918854 20.870483,13.167191 24.893188,-3.076294c13.000122,-7.520676 -10.30127,-4.499283 -9.274902,-6.4776c-10.846558,-15.760422 -39.55481,-16.625992 -46.500122,-10.1875c-18.915771,-0.357681 -29.592407,-10.932159 -47.875,-9.875c-5.460938,-5.80835 -11.218384,-6.573364 -18.421021,-3.608063c5.462769,-7.576981 -17.929321,-5.426407 -16.391479,2.264313c-11.985107,-2.068771 -32.710754,7.747284 -31.5625,-7.5c-1.750732,-8.939209 -23.241089,2.680725 -32.188843,-4.664246c-8.875427,7.027817 -13.507324,-11.080383 -17.623657,-3.523254c15.652771,6.86377 -6.065308,-2.768799 -0.59375,5.28125c-23.114929,7.844803 -2.498413,-8.313919 7.832031,-10.464111c3.522278,-12.745468 -27.474182,-0.845001 -24.269531,-12.504639l-1.65625,-0.15625zm-146.71875,142.25c5.966309,4.759583 -11.576294,9.074005 0.28125,17.28125c0.742249,5.847412 9.489014,1.02948 1.57605,7.554291c13.823181,18.323059 -20.299377,14.003723 -8.32605,-2.991791c-7.243408,-8.300781 -8.784607,-22.162842 6.46875,-21.84375zm23.28125,2.9375c4.882996,11.734283 -11.86731,7.683105 0,0z"/>
  <path fill="#ff0000" stroke="#000000" id="path3622" d="m226.481857,56.306801c-0.779312,0.003281 -0.942993,0.34317 -0.686935,1.1208c0.302658,0.91925 2.722122,1.875149 5.640152,2.205448c4.312607,0.488152 5.219284,1.030071 5.712463,3.470852c0.563919,2.790989 1.651199,3.331799 7.700974,3.832417c1.378922,0.114105 2.940826,0.657036 3.470871,1.193115c0.530029,0.536095 4.62059,0.683014 9.074844,0.325394c4.454285,-0.357643 9.8255,-0.66758 11.931091,-0.686943c2.35788,-0.02169 3.532837,-0.485497 3.073181,-1.229271c-0.410522,-0.664185 -0.054779,-2.095924 0.79541,-3.181622c1.336212,-1.706341 1.319366,-1.812592 -0.180786,-0.65078c-0.954468,0.73922 -3.036987,1.321232 -4.627808,1.301556c-1.59082,-0.019676 -7.318726,0.237251 -12.726501,0.542343c-10.088898,0.569153 -15.040421,-0.8587 -15.040421,-4.338589c0,-0.83202 -1.900925,-1.756031 -4.338577,-2.09697c-2.386215,-0.333752 -5.831879,-0.986721 -7.66481,-1.446201c-0.965851,-0.2421 -1.665558,-0.36351 -2.133148,-0.361549z"/>
  <path fill="#ff0000" stroke="#000000" id="path3562" d="m252.73027,73.516487c-3.474396,0.000015 -8.641006,4.255226 -8.641006,7.122505c0,3.289696 3.62532,9.061577 5.748611,9.147186c0.976379,0.039368 6.97789,0.242668 13.341141,0.433838c8.041107,0.2416 12.980927,0.973427 16.197357,2.422386c2.545319,1.146614 5.55249,2.1688 6.68866,2.277756c3.526733,0.338234 4.885895,2.526588 3.036987,4.880905c-1.469788,1.871529 -1.429047,1.914948 0.325409,0.54232c1.657867,-1.297066 2.126129,-1.176796 3.18161,0.795403c0.680695,1.271927 1.229279,3.032806 1.229279,3.940887c0,1.115593 0.88501,1.513023 2.747742,1.156944c3.376343,-0.645432 4.796051,1.211662 2.422394,3.181633c-1.415161,1.174492 -2.118408,1.084579 -3.796265,-0.433861c-1.883698,-1.70472 -2.302246,-1.690392 -4.663971,-0.036163c-2.055969,1.440071 -2.302643,2.141365 -1.229279,3.434715c0.744598,0.897148 0.880585,1.650475 0.325409,1.69928c-0.555145,0.048798 -3.330261,0.178955 -6.182465,0.289238c-3.918365,0.151497 -5.305939,0.711777 -5.604004,2.2416c-0.285278,1.463997 0.3703,2.037483 2.313904,2.024673c1.478394,-0.009743 3.376801,-0.471481 4.230103,-1.012344c1.674286,-1.061172 10.593384,2.619743 10.593384,4.374741c0,0.55249 1.392578,1.376877 3.109314,1.807739c2.373749,0.595764 2.75766,1.005753 1.518494,1.771584c-1.130554,0.698708 -0.550293,0.974007 1.916199,0.903877c1.955139,-0.05558 5.588562,0.957642 8.062531,2.241585c5.842712,3.032242 5.783325,3.04425 3.2901,0.289246c-2.085785,-2.304741 -2.099731,-2.40448 0.180756,-3.000847c3.703125,-0.968384 2.54895,-4.919815 -3.109314,-10.521049c-4.921265,-4.871727 -5.052277,-5.148621 -2.892365,-6.760963c3.030609,-2.262291 3.336884,-2.165192 7.628662,1.843903c2.906128,2.714737 4.088348,3.187126 5.314758,2.169289c0.867645,-0.7201 1.279053,-1.815315 0.90387,-2.422371c-0.375183,-0.607063 0.409485,-1.379242 1.771576,-1.735428c2.309998,-0.60408 2.341705,-0.799416 0.578491,-2.747772c-1.039703,-1.148872 -2.514343,-1.852348 -3.2901,-1.554657c-0.775787,0.297668 -2.371124,-0.512665 -3.543182,-1.807747c-1.180115,-1.304024 -3.586761,-2.35006 -5.387054,-2.35006c-3.890289,0.000015 -6.740601,-3.912804 -3.97702,-5.459373c0.92984,-0.520386 1.352234,-1.456856 0.90387,-2.096985c-1.037537,-1.481239 -7.447784,-4.500465 -8.821777,-4.157822c-0.572205,0.142715 -1.873779,-0.074738 -2.892395,-0.469994c-1.624481,-0.630341 -1.572144,-0.900375 0.397705,-2.350067c1.878601,-1.382584 1.941101,-1.663139 0.361542,-1.663139c-1.038574,0.000015 -2.208801,0.518936 -2.603149,1.15696c-0.445435,0.720741 -1.461212,0.758316 -2.675446,0.108467c-1.074951,-0.575287 -2.472992,-1.0942 -3.109314,-1.156944c-0.636322,-0.062767 -1.156952,-0.686256 -1.156952,-1.373886c0,-2.260086 -3.879852,-4.13916 -7.447906,-3.615486c-1.926697,0.282776 -3.244385,0.9851 -2.892395,1.554649c1.040192,1.683037 -2.846191,2.557106 -4.663971,1.0485c-0.918488,-0.762314 -2.163696,-1.070259 -2.783905,-0.686943c-1.568024,0.969093 -3.042786,-1.722115 -2.639313,-4.844757c0.265747,-2.056664 -0.227966,-2.596054 -2.350067,-2.566978c-1.477295,0.020248 -3.452759,0.671028 -4.410889,1.44619c-2.007263,1.62397 -2.614563,7.708694 -0.976166,9.689491c0.727631,0.879738 0.62027,1.643333 -0.289246,2.205444c-2.116486,1.30806 -4.524124,-2.867096 -4.338577,-7.52021l0.144623,-4.121651l0.723083,4.627831c0.6194,3.977104 0.818344,4.253395 1.482346,1.916206c1.095032,-3.854202 -1.200226,-8.279472 -4.302414,-8.279472z"/>
  <path fill="#ff0000" stroke="#000000" id="path3554" d="m231.4375,83.625c-0.436264,-0.011551 -0.819092,0.115341 -1.1875,0.3125c-4.228317,2.262947 -4.343735,8.09375 -0.15625,8.09375c3.145645,0.000023 3.492233,0.975929 1.65625,4.65625c-2.190338,4.390587 -3.282318,4.986259 -6.0625,3.25c-1.730499,-1.080711 -2.947281,-1.108101 -4.96875,-0.125c-4.801727,2.335228 -12.225937,2.767616 -16.53125,0.96875c-2.225372,-0.929817 -4.0625,-2.237457 -4.0625,-2.90625c0.000015,-1.33712 -5.639191,-1.669739 -8.6875,-0.5c-1.537231,0.589912 -1.606018,0.969658 -0.375,1.75c0.848785,0.538033 2.326767,0.941238 3.28125,0.90625c1.144287,-0.041924 0.931976,-0.406883 -0.59375,-1.0625c-1.886307,-0.810562 -1.938599,-1.027458 -0.34375,-1.09375c2.987976,-0.124191 3.813919,2.303574 1.03125,3.03125c-1.803909,0.471741 -2.353775,1.445839 -2.125,3.59375c0.420013,3.943253 -2.318008,4.652939 -3.71875,0.96875c-1.308136,-3.440712 -5.193832,-4.741791 -11.65625,-3.875c-5.210724,0.698914 -8.517044,-1.629227 -5.0625,-3.5625c1.803864,-1.009506 1.776077,-1.217178 -0.5625,-2.46875c-1.920471,-1.027809 -2.978104,-1.040268 -4.15625,-0.0625c-1.196228,0.992783 -2.524765,0.830833 -5.4375,-0.6875c-5.088165,-2.652313 -12.711716,-4.022812 -14.4375,-2.59375c-0.90921,0.752899 -2.506134,0.521317 -4.84375,-0.6875c-3.261642,-1.686684 -3.798172,-1.661011 -7.34375,0.46875c-9.339729,5.610191 -12.78952,7.11673 -13.84375,6.0625c-0.683258,-0.683273 0.750526,-2.210426 3.875,-4.09375c2.743759,-1.653847 4.373779,-3.037666 3.59375,-3.0625c-0.780029,-0.024834 -3.075272,1.003487 -5.125,2.25c-2.990341,1.818542 -4.089561,1.997276 -5.53125,0.875c-1.505188,-1.171753 -1.575172,-1.141357 -0.5,0.3125c1.583221,2.140877 2.897118,8.727867 1.9375,9.6875c-1.270432,1.270432 -3.84375,-1.813232 -3.84375,-4.625c0,-1.512901 -0.366508,-2.763809 -0.84375,-2.8125c-1.941383,-0.198036 -4.599022,-0.975838 -9.40625,-2.71875c-2.78437,-1.009506 -6.276749,-1.84375 -7.75,-1.84375c-1.473251,0.000023 -2.961548,-0.494629 -3.3125,-1.0625c-0.350967,-0.567841 -3.756203,-1.070976 -7.59375,-1.125c-3.83757,-0.054024 -8.054703,-0.608101 -9.3125,-1.28125c-1.560349,-0.835083 -2.972878,-0.86306 -4.46875,-0.0625c-1.627823,0.871193 -2.53936,0.707962 -3.59375,-0.5625c-0.781059,-0.941109 -2.89399,-1.6875 -4.6875,-1.6875c-1.793499,0.000008 -3.587631,-0.582771 -4,-1.25c-0.51857,-0.839058 -1.223419,-0.784157 -2.28125,0.09375c-1.045219,0.867462 -1.7743,0.882782 -2.28125,0.0625c-0.482391,-0.780533 -1.75206,-0.550461 -3.59375,0.65625c-1.557621,1.020607 -2.802761,1.42543 -2.8125,0.875c-0.009739,-0.550438 -0.51416,-0.291 -1.09375,0.625c-0.57959,0.916 -2.455101,1.892998 -4.1875,2.125c-1.732391,0.231987 -4.155651,1.69136 -5.40625,3.28125c-1.25061,1.589882 -2.57996,2.638779 -2.90625,2.3125c-0.326302,-0.326302 -2.075729,0.178413 -3.90625,1.125l-3.3125,1.71875l3.75,3.21875c3.570129,3.076668 7.09264,5.060333 9.4375,5.28125c2.078468,0.195839 1.93214,2.880119 -0.21875,4.03125c-1.570011,0.84024 -3.046841,0.706703 -5.3125,-0.46875c-2.06514,-1.071404 -3.845558,-1.273659 -5.125,-0.59375c-1.07585,0.571709 -3.0086,1.384148 -4.28125,1.8125c-2.23988,0.753899 -2.219971,0.816467 0.28125,1.78125c1.548229,0.597191 2.341749,1.621727 1.96875,2.59375c-0.959551,2.500519 9.944599,3.52005 11.71875,1.09375c1.717869,-2.349312 3.61895,-1.123787 3.375,2.1875c-0.185631,2.519798 -5.966949,7.008072 -7.75,6c-0.454041,-0.256691 -1.890339,0.609077 -3.21875,1.9375c-1.68635,1.686356 -2.19701,3.192551 -1.65625,4.96875c1.19009,3.909027 4.232651,6.788605 6.53125,6.1875c1.140091,-0.298126 2.514439,0.23941 3.0625,1.21875c1.360661,2.431366 8.734531,4.875336 10.96875,3.625c2.41272,-1.35025 3.361401,0.532715 2.03125,4.03125c-1.245892,3.276978 -5.655819,6.633514 -12.15625,9.34375c-2.483929,1.035645 -4.250061,2.156189 -3.9375,2.46875c0.545959,0.545975 6.57621,-1.926605 10.1875,-4.15625c0.954491,-0.589325 3.582951,-2.052994 5.84375,-3.28125c4.722279,-2.565567 11.683388,-9.305054 10.90625,-10.5625c-0.288429,-0.46669 0.240021,-1.494904 1.1875,-2.28125c0.947487,-0.786316 1.71875,-2.10759 1.71875,-2.90625c0,-2.300354 3.26545,-4.36618 5.5,-3.5c1.940964,0.75238 1.926964,0.862106 0,2.28125c-1.764343,1.299377 -2.890282,5.28125 -1.5,5.28125c2.564201,0.000015 6.548409,-2.621033 6.03125,-3.96875c-1.120407,-2.919693 4.07093,-5.026382 5.9375,-2.40625c1.452698,2.039169 6.447472,3.859085 12.53125,4.5625c3.253227,0.376144 8.42598,1.943726 11.5,3.5c3.794701,1.921127 6.010513,2.488083 6.9375,1.71875c0.953056,-0.790985 1.936447,-0.285965 3.25,1.71875c1.034981,1.579544 1.875,3.227356 1.875,3.625c0,1.179138 5.089653,5.052048 6.6875,5.09375c2.450668,0.063965 5.171768,7.737167 3.53125,9.96875c-0.574249,0.781143 0.224442,1.804535 2.09375,2.65625c2.981277,1.358353 3.011353,1.412674 0.90625,3.9375c-1.175262,1.409546 -1.438507,1.953125 -0.5625,1.1875c2.20491,-1.927048 6.560776,0.293304 4.78125,2.4375c-1.445923,1.742203 -0.471924,3 2.3125,3c2.908234,0 12.65625,9.599731 12.65625,12.46875c-0.000015,2.746613 -1.78154,4.362991 -2.875,2.59375c-1.610504,-2.605896 -2.317139,-0.848297 -2.4375,6.03125c-0.06958,3.977432 -0.315613,10.369553 -0.53125,14.1875c-0.409454,7.249313 2.428757,15.796097 5.0625,15.28125c0.707016,-0.138214 1.342453,0.879623 1.4375,2.25c0.263947,3.805908 5.093124,10.831024 8.25,12.03125c1.552673,0.590332 2.483948,1.6306 2.0625,2.3125c-0.459488,0.743484 0.087784,1.095444 1.375,0.875c1.679504,-0.287613 2.568085,1.007813 4.21875,6c1.157211,3.499786 3.119186,7.441071 4.34375,8.75c1.612686,1.723816 1.886108,2.738892 0.96875,3.65625c-0.917374,0.917358 -0.286774,2.121552 2.3125,4.4375c1.973663,1.758575 3.621033,4.267181 3.65625,5.59375c0.068848,2.593903 6.455673,8.419342 7.78125,7.09375c0.440414,-0.440399 -0.110474,-1.286041 -1.21875,-1.90625c-1.108261,-0.620239 -2,-1.672241 -2,-2.34375c0,-0.671478 -1.559769,-3.546417 -3.46875,-6.375c-1.908966,-2.828552 -3.47052,-5.523407 -3.46875,-5.96875c0.001785,-0.445343 -1.171997,-2.971954 -2.59375,-5.65625c-1.997498,-3.771317 -2.28186,-5.218124 -1.21875,-6.28125c1.583267,-1.583267 4.96875,0.501846 4.96875,3.0625c0.000015,0.80658 2.324036,4.67276 5.1875,8.5625c2.863464,3.88974 5.21875,7.448761 5.21875,7.96875c0,0.519989 1.746475,2.999237 3.875,5.5c5.128143,6.024902 6.552063,8.890686 5.8125,11.71875c-0.794815,3.039398 2.926834,5.988495 15.5,12.21875c7.999344,3.963837 10.073914,4.574036 11.84375,3.46875c1.750229,-1.093018 2.875,-0.801514 6.3125,1.53125c5.448608,3.69751 12.868866,7.4375 14.6875,7.4375c2.863815,0 7.90625,6.148224 7.90625,9.625c0,2.86203 0.249268,3.193634 1.6875,2c1.402008,-1.163605 1.934204,-0.958069 2.96875,1.3125c0.792419,1.739166 2.399017,2.844238 4.28125,3c1.645142,0.136139 3.585632,0.740479 4.3125,1.34375c0.885498,0.734924 1.757416,0.364319 2.6875,-1.125c3.101532,-4.96637 8.363098,2.483185 8.1875,11.59375c-0.078339,4.06488 -0.907349,6.18399 -3.90625,9.84375c-2.102875,2.566315 -4.470703,7.186401 -5.25,10.28125c-1.27951,5.081329 -1.223907,5.760315 0.65625,6.8125c1.967987,1.101318 1.924286,1.263184 -0.375,3.03125l-2.40625,1.875l3.8125,8.6875c2.11264,4.77243 5.108398,12.550354 6.625,17.28125c2.332855,7.27713 3.436584,9.051605 7.15625,11.5625c2.418182,1.632385 6.270508,4.643341 8.5625,6.71875l4.15625,3.78125l-1.4375,19.9375c-0.784637,10.969269 -1.547882,22.812714 -1.71875,26.3125c-0.203033,4.158142 -1.393555,8.540192 -3.46875,12.625c-2.291779,4.511169 -3.002075,7.208313 -2.5,9.71875c0.382629,1.9133 0.072906,5.209656 -0.6875,7.3125c-1.080566,2.98819 -1.08139,4.389801 0.03125,6.46875c1.700012,3.176575 1.200012,15.393738 -0.71875,17.3125c-0.997528,0.997559 -1.509186,0.835876 -2.09375,-0.6875c-0.614685,-1.601807 -1.007782,-1.720154 -1.78125,-0.5c-1.249084,1.970398 -1.278168,3.595093 -0.0625,2.84375c1.328369,-0.821045 7.434052,5.952881 6.59375,7.3125c-0.382568,0.619019 -1.355865,0.862366 -2.21875,0.53125c-1.215302,-0.46637 -1.476929,0.644592 -1.1875,4.9375c0.205475,3.048035 -0.249023,6.257751 -0.96875,7.125c-1.00824,1.214844 -0.914154,1.493469 0.375,1.21875c2.47348,-0.527161 8.262848,3.706177 7.5625,5.53125c-1.084137,2.825195 1.213226,1.617554 2.5625,-1.34375c0.724792,-1.59082 1.850037,-2.875 2.5,-2.875c0.649994,0 1.1875,-1.226563 1.1875,-2.71875c0,-1.492188 1.03595,-3.657227 2.3125,-4.8125c1.27655,-1.155212 2.088837,-2.379944 1.78125,-2.6875c-0.307587,-0.307556 1.055298,-2.374512 3.03125,-4.625c3.493988,-3.979431 3.516998,-4.095459 1.15625,-4.96875c-4.667023,-1.72644 -4.226227,-10.28125 0.53125,-10.28125c1.010284,0 1.59375,-1.293701 1.59375,-3.5625c0,-2.619873 0.630249,-3.77066 2.34375,-4.21875c1.982513,-0.518463 2.081085,-0.801697 0.65625,-1.90625c-0.925293,-0.717346 -1.859406,-2.352356 -2.0625,-3.625c-0.297577,-1.864685 0.278107,-2.3125 2.96875,-2.3125c3.209991,0.000031 4.47229,-1.176971 5.78125,-5.4375c0.422363,-1.374725 2.450317,-2.204498 6.5625,-2.75c9.456146,-1.254425 11.687592,-5.43045 6.34375,-11.78125c-3.476349,-4.131409 -2.724792,-5.362732 1.71875,-2.8125c3.047302,1.748932 3.569061,1.738983 7.28125,-0.03125c4.023804,-1.918762 6.91568,-5.880371 13.03125,-18.0625c2.474548,-4.929352 2.850677,-6.708435 1.90625,-8.78125c-0.651611,-1.430115 -0.837982,-3.176453 -0.40625,-3.875c0.857941,-1.388153 9.10791,-7.1875 10.21875,-7.1875c0.378815,-0.000031 1.262268,-0.786499 1.96875,-1.71875c0.706451,-0.932281 3.36084,-1.878998 5.875,-2.125c4.39624,-0.430115 4.64682,-0.724548 7.71875,-7.84375c2.604767,-6.036591 3.214111,-9.138336 3.25,-16.875c0.030945,-6.66745 0.502625,-9.787292 1.59375,-10.4375c0.853943,-0.508881 3.453583,-3.744141 5.78125,-7.15625c5.582855,-8.183929 5.895416,-14.262665 0.84375,-16.875c-1.870361,-0.967194 -4.072205,-2.717346 -4.90625,-3.90625c-1.115326,-1.589905 -3.406738,-2.310852 -8.625,-2.6875c-6.086151,-0.439301 -7.641815,-1.048065 -10.8125,-4.21875c-4.469025,-4.469025 -6.474091,-4.605316 -9.53125,-0.71875c-1.645264,2.091614 -3.218933,2.843597 -5.375,2.59375c-3.675873,-0.425964 -3.636963,-2.407898 0.0625,-3.28125c1.465973,-0.346069 2.822174,-1.508057 3.03125,-2.59375c0.56311,-2.92392 -1.522217,-2.439148 -5.9375,1.4375c-2.157715,1.894501 -4.240387,3.134613 -4.625,2.75c-1.217926,-1.217926 6.201599,-10.928772 7.6875,-10.0625c0.755829,0.440643 0.335144,-0.394928 -0.9375,-1.84375c-1.272675,-1.448822 -2.193787,-2.933289 -2.0625,-3.34375c1.360718,-4.25415 -6.183777,-10.59375 -12.59375,-10.59375c-3.186798,0 -5.00058,-0.952606 -8.3125,-4.34375c-2.330475,-2.38623 -5.516632,-5.577362 -7.09375,-7.09375c-1.577087,-1.516388 -2.524506,-3.291107 -2.125,-3.9375c0.478394,-0.774109 -1.318848,-0.919464 -5.1875,-0.40625c-3.691772,0.489716 -6.121368,0.326843 -6.59375,-0.4375c-0.413361,-0.668884 -1.346344,-1.118927 -2.09375,-1c-2.308228,0.367218 -7.735107,-2.318451 -7.8125,-3.875c-0.040344,-0.811188 -0.54953,-0.306732 -1.125,1.125c-0.5755,1.431702 -1.52774,2.59375 -2.125,2.59375c-0.59726,-0.000031 -0.845276,0.986664 -0.53125,2.1875c0.823334,3.148438 -1.591125,4.116028 -3.125,1.25c-1.016876,-1.900024 -0.88324,-3.012268 0.5625,-5.21875c2.379303,-3.631195 0.627991,-3.628998 -2.78125,0c-1.451294,1.54483 -3.340851,2.493134 -4.21875,2.15625c-1.467926,-0.563324 -2.011505,0.343689 -4.59375,7.625c-0.441956,1.246277 -1.242371,0.966583 -3.46875,-1.125c-2.612885,-2.454681 -3.324585,-2.583221 -7.5,-1.46875c-4.405914,1.175995 -4.765839,1.085419 -7.625,-2.3125c-2.751038,-3.26944 -2.952148,-4.170288 -2.28125,-10.71875c0.723236,-7.059021 0.725983,-7.16568 -2.4375,-8.0625c-1.760315,-0.499023 -5.054108,-0.918945 -7.28125,-0.96875c-3.792023,-0.084778 -4.008575,-0.356323 -3.65625,-3.59375c0.206924,-1.901428 0.779633,-3.98111 1.28125,-4.625c0.501617,-0.64389 1.243683,-3.358124 1.65625,-6.0625c0.664764,-4.357758 0.496078,-4.90625 -1.5,-4.90625c-5.084717,0 -8.029465,2.104919 -8.40625,6c-0.339203,3.506622 -0.737274,3.849121 -5.5,4.65625c-6.429489,1.089569 -9.508286,-0.696655 -12.75,-7.40625c-2.277893,-4.714661 -3.223206,-14.714294 -1.53125,-16.40625c0.458374,-0.458344 0.682236,-2.603638 0.5,-4.71875c-0.289246,-3.357147 0.225525,-4.159851 4.0625,-6.53125c5.203842,-3.216125 6.495636,-3.499847 10.59375,-2.21875c1.703064,0.53241 4.854355,1.252716 7,1.625c3.486282,0.604889 3.723175,0.50589 2.34375,-1.15625c-1.312943,-1.582001 -1.181015,-2.117737 0.75,-3.53125c1.456818,-1.066422 3.300186,-1.375259 5.15625,-0.84375c1.59082,0.455536 4.272522,0.766663 5.96875,0.6875c3.517181,-0.164185 6.57077,3.524963 7.15625,8.6875c0.449554,3.963989 3.138458,8.40625 5.09375,8.40625c1.967865,0 1.830292,-1.50882 -0.875,-10.96875c-1.272675,-4.450226 -2.3125,-8.803406 -2.3125,-9.65625c0,-0.852844 2.782104,-4.348557 6.1875,-7.78125c3.405426,-3.432709 5.9711,-6.5289 5.65625,-6.84375c-0.31488,-0.314865 0.239349,-0.881424 1.28125,-1.28125c1.04187,-0.399796 1.63739,-1.130554 1.3125,-1.65625c-0.32489,-0.525665 -0.023438,-1.317993 0.625,-1.71875c0.795593,-0.491684 0.737244,-1.478546 -0.09375,-3.03125c-1.43161,-2.675049 -0.992645,-8.53125 0.625,-8.53125c0.607635,-0.000015 1.432495,1.28418 1.875,2.875c0.658173,2.366074 0.84317,2.47229 0.9375,0.5625c0.17572,-3.557129 5.71701,-10.96875 8.1875,-10.96875c4.332886,-0.000015 5.829285,-1.19014 4.40625,-3.46875c-1.024933,-1.641159 -0.884766,-2.741867 0.65625,-5.09375c1.083221,-1.653229 2.757782,-3 3.71875,-3c0.960968,-0.000015 4.186096,-1.24231 7.1875,-2.75c3.732452,-1.874893 6.198608,-2.444824 7.78125,-1.8125c1.3349,0.533371 1.636139,0.984344 0.6875,1.03125c-2.301239,0.113815 -5.90625,3.549973 -5.90625,5.65625c0,1.403381 0.515472,1.296387 2.59375,-0.5625c1.431732,-1.280594 4.290161,-3.014923 6.3125,-3.8125c2.022308,-0.797577 3.984375,-2.188446 4.34375,-3.125c0.359375,-0.936554 1.140411,-1.396042 1.78125,-1c0.640808,0.396057 1.1875,0.255325 1.1875,-0.3125c0,-2.352631 -1.483734,-2.172516 -4.1875,0.53125c-2.310486,2.310516 -3.184021,2.618103 -4.53125,1.5c-0.920715,-0.764114 -1.308289,-1.995453 -0.875,-2.71875c0.587738,-0.981155 0.338379,-0.981689 -0.90625,0c-1.315399,1.037476 -2.319244,0.653442 -4.78125,-1.875c-3.262878,-3.350891 -3.162689,-4.625 0.40625,-4.625c1.189728,0 2.125,-0.816681 2.125,-1.875c0,-2.927917 -7.755859,-1.201614 -11.75,2.625c-2.312408,2.215393 -3.644501,2.824234 -4.5,1.96875c-1.690338,-1.690353 8.207764,-10.304062 12.9375,-11.25c1.989532,-0.397903 6.168579,-0.71875 9.3125,-0.71875c3.143921,-0.000015 6.860107,-0.628174 8.25,-1.375c1.389923,-0.746841 4.091034,-1.669662 6,-2.0625c3.009521,-0.619293 3.46875,-1.226776 3.46875,-4.53125c0,-5.086121 -1.454773,-6.011307 -6.65625,-4.21875c-2.94632,1.015366 -4.591339,1.125397 -5.09375,0.3125c-0.939789,-1.52066 2.769562,-4.317215 5.90625,-4.4375c1.684113,-0.06459 1.88324,-0.257706 0.65625,-0.71875c-0.954468,-0.358673 -3.087372,-1.618134 -4.75,-2.78125c-1.662628,-1.163147 -3.305786,-1.850464 -3.625,-1.53125c-0.319244,0.319229 -1.413391,-0.733093 -2.46875,-2.34375c-1.055359,-1.610672 -1.568756,-2.9375 -1.125,-2.9375c0.443756,-0.000015 -0.372009,-1.218674 -1.78125,-2.71875c-1.409241,-1.500107 -2.830566,-4.203964 -3.15625,-6c-0.944916,-5.210876 -1.589905,-5.436172 -5.0625,-1.71875c-1.958038,2.096085 -3.967224,3.240067 -5,2.84375c-0.950104,-0.364594 -2.081573,-0.07135 -2.53125,0.65625c-0.555145,0.898254 -1.6203,0.470322 -3.28125,-1.3125c-2.728821,-2.929062 -3.431976,-5.299667 -1.84375,-6.28125c1.628235,-1.006302 1.257629,-3.96875 -0.5,-3.96875c-0.861572,0 -3.063416,-1.417297 -4.90625,-3.15625c-2.605408,-2.458572 -4.591309,-3.242958 -8.90625,-3.375c-5.186096,-0.158707 -5.672791,0.11602 -7.09375,3.5c-1.00708,2.3983 -1.118805,4.297455 -0.40625,5.6875c0.714142,1.393158 0.571625,2.678299 -0.34375,3.78125c-0.758423,0.913834 -0.973999,1.65625 -0.5,1.65625c0.473999,0.000015 0.279999,0.697968 -0.4375,1.5625c-0.996002,1.200119 -0.73996,2.279541 1.03125,4.53125c2.853638,3.627808 2.93573,7.514114 0.28125,11.28125c-1.303589,1.849991 -2.083466,5.315552 -2.1875,9.75c-0.118866,5.067154 -0.658142,7.217056 -2.15625,8.3125c-1.752411,1.281372 -2.674072,0.927078 -6.625,-2.78125c-4.173187,-3.916962 -4.504639,-4.725327 -4.03125,-9.09375l0.5,-4.8125l-5.125,-0.5625c-3.356888,-0.378403 -7.309494,-2.043747 -11.375,-4.84375c-3.421326,-2.356339 -6.720825,-3.978729 -7.34375,-3.59375c-1.402435,0.86676 -2.942551,-1.473907 -3,-4.5625c-0.03212,-1.727997 -0.681473,-2.207764 -2.625,-1.9375c-1.905258,0.264954 -2.896683,-0.431595 -3.71875,-2.59375c-1.614471,-4.246338 -0.288712,-7.032822 7.1875,-14.875c1.75441,-1.840271 2.903,-3.792824 2.5625,-4.34375c-0.845306,-1.367752 3.544067,-3.555801 5.5625,-2.78125c0.895706,0.343719 2.869644,-0.403038 4.40625,-1.65625c3.036469,-2.476463 3.199234,-2.288391 -3.46875,-4.34375c-3.056305,-0.942101 0.613617,-2.9207 4.6875,-2.53125c3.602417,0.344383 3.918427,0.710037 4.25,4.71875c0.260864,3.15358 -0.124847,4.546791 -1.46875,5.0625c-1.475723,0.566292 -1.196503,1.062042 1.375,2.40625c3.041016,1.58963 3.343781,1.517448 5.40625,-1.21875c2.044617,-2.71254 2.344635,-2.793716 4.84375,-1.15625c1.472046,0.964523 3.220886,1.416199 3.84375,1.03125c1.834076,-1.13353 -3.865204,-6.373047 -7.78125,-7.15625c-1.972351,-0.39447 -4.381592,-1.952629 -5.375,-3.46875c-1.884918,-2.876762 -1.652466,-3.142113 2.5,-2.8125c2.74173,0.217651 9.59375,-2.909813 9.59375,-4.375c0,-0.49836 -0.723114,-1.922859 -1.625,-3.15625c-1.180847,-1.614899 -1.262909,-2.648903 -0.375,-3.71875c1.653412,-1.992241 -2.064606,-4.794167 -6.40625,-4.84375c-2.750519,-0.03138 -3.0466,0.282082 -2.09375,2.0625c0.851044,1.590134 0.356476,3.006317 -1.9375,5.9375c-2.819397,3.602539 -3.059525,3.688698 -4.5,1.71875c-0.845535,-1.156372 -1.5625,-3.233711 -1.5625,-4.625c0,-1.391273 -0.744324,-3.149429 -1.65625,-3.90625c-1.336136,-1.108879 -2.030884,-0.791481 -3.59375,1.59375c-2.088867,3.188011 -4,2.97216 -4,-0.4375c0.000015,-1.191139 -1.086807,-2.411697 -2.5,-2.78125c-1.953461,-0.510849 -2.201981,-0.965134 -1.1875,-2.1875c1.794357,-2.162064 -2.446045,-6.887833 -5.5,-6.96875zm16.125,96.34375c0.636322,0.000015 1.15625,0.519913 1.15625,1.15625c-0.000015,0.636322 -0.519928,1.156235 -1.15625,1.15625c-0.636337,0 -1.15625,-0.519943 -1.15625,-1.15625c0,-0.636337 0.519913,-1.156265 1.15625,-1.15625zm2.34375,6.3125c0.124222,-0.009491 0.244736,-0.009064 0.375,0c0.625305,0.043488 1.32251,0.281937 2.28125,0.71875c1.649445,0.751526 3.767944,3.055435 4.75,5.125c1.494507,3.14946 2.694092,3.949356 7.21875,4.78125c2.973267,0.546646 5.603912,1.653442 5.875,2.46875c0.271088,0.815292 -0.149048,1.335205 -0.96875,1.15625c-0.852722,-0.186172 -1.792236,1.170334 -2.1875,3.15625c-0.689911,3.466537 -0.701843,3.444763 -2.15625,0.8125c-0.800934,-1.449554 -1.861206,-2.368103 -2.40625,-2.03125c-0.545074,0.336868 -0.756287,-0.37468 -0.4375,-1.59375c0.375519,-1.435989 -0.256836,-2.669632 -1.75,-3.46875c-1.932892,-1.034454 -2.613525,-0.680649 -4.375,1.96875c-1.155167,1.737473 -2.405502,5.480286 -2.75,8.34375c-0.397003,3.300049 -0.962296,4.652023 -1.5625,3.71875c-0.520813,-0.809784 -0.775833,-2.889114 -0.59375,-4.625c0.182083,-1.735886 -0.008865,-3.638306 -0.40625,-4.28125c-1.008118,-1.631195 1.570007,-4.878098 4.3125,-5.40625c6.57962,-1.267136 -3.651886,-5.649887 -11.375,-4.875c-4.291946,0.430618 -4.521393,0.356262 -1.96875,-0.75c1.5905,-0.689301 4.000977,-2.301041 5.34375,-3.5625c1.138229,-1.069305 1.911697,-1.589813 2.78125,-1.65625zm22.34375,8.03125c0.496155,-0.075928 1.001862,0.110443 1.28125,0.5625c0.372528,0.602737 0.196503,1.408737 -0.40625,1.78125c-0.602753,0.372513 -1.408752,0.196487 -1.78125,-0.40625c-0.372528,-0.602737 -0.196503,-1.377502 0.40625,-1.75c0.150665,-0.093124 0.334625,-0.162186 0.5,-0.1875zm9.875,8.96875c0.13562,-0.015182 0.222687,-0.015549 0.3125,0c0.239471,0.041443 0.317719,0.210907 0.21875,0.46875c-0.343231,0.894394 -2.343811,2.069504 -4.46875,2.65625c-2.124969,0.586731 -5.645508,2.440903 -7.8125,4.09375c-2.166962,1.652847 -4.616364,2.999985 -5.4375,3c-2.238525,0 3.112305,-3.684982 11.1875,-7.75c2.980774,-1.500504 5.050659,-2.362473 6,-2.46875z"/>
  <path fill="#9acbff" id="path3530" d="m125.501427,95.534782c-0.63633,0 -1.937897,0.503967 -2.892387,1.120811c-0.954491,0.616859 -1.214798,1.120789 -0.578468,1.120789c0.636322,0 1.937889,-0.50396 2.89238,-1.120789c0.954491,-0.616837 1.214798,-1.120811 0.578476,-1.120811z"/>
  <path fill="#ff0000" stroke="#000000" id="path3518" d="m455.197296,108.550529c-0.833984,-0.002068 -2.033875,0.136559 -3.723938,0.397697c-3.022552,0.467033 -6.429138,0.758324 -7.556366,0.686951c-1.127319,-0.071365 -1.772675,0.303345 -1.446198,0.831566c0.895386,1.448738 -4.654297,4.689209 -8.315613,4.844734l-3.217773,0.144623l3.470886,0.723099c1.908936,0.408203 3.21051,1.205643 2.892365,1.771591c-0.667694,1.187531 2.929413,2.809723 6.507874,2.928543c1.346924,0.044716 5.251648,-1.057014 8.677155,-2.458534c6.953857,-2.845078 8.680328,-4.495346 6.182495,-5.893242c-0.925568,-0.518005 -1.69928,-1.749748 -1.69928,-2.711609c0,-0.89637 -0.381622,-1.261955 -1.771606,-1.265419z"/>
  <path fill="#007f7f" stroke="#000000" id="path3066" d="m872.894043,395.439087c-0.330383,0.054718 -0.363281,0.274689 -0.108459,0.686951c0.418091,0.676544 -0.563721,2.093414 -2.169312,3.145477c-1.605652,1.052063 -2.655762,2.325439 -2.350037,2.820068c0.305725,0.494629 -0.237854,1.55722 -1.193115,2.350067c-1.256714,1.042969 -1.394287,1.822388 -0.506165,2.892365c0.675049,0.813416 0.833496,1.747192 0.325378,2.060822c-1.835999,1.13327 -8.912476,-0.1008 -9.544861,-1.663116c-0.905518,-2.237427 -3.543213,-2.528198 -3.543213,-0.397705c0,0.96817 -1.243408,2.335144 -2.783875,3.037018c-1.587402,0.723236 -2.575623,1.913391 -2.241638,2.783905c0.324158,0.844818 0.218628,2.165375 -0.253052,2.928558c-0.61969,1.002655 -1.295959,0.817261 -2.422424,-0.723083c-1.5047,-2.057861 -1.566895,-2.059418 -1.69928,0.108459c-0.075378,1.235168 -0.05658,2.865723 0.036194,3.615479c0.177124,1.430328 -6.829895,7.303284 -8.713318,7.303284c-1.137878,-0.000031 -6.44043,2.66925 -12.871155,6.47171c-4.230591,2.501526 -4.977905,6.447113 -1.880005,9.87027c1.139099,1.258667 1.57135,2.9021 1.084656,4.157806c-0.756714,1.952362 -0.897949,1.939697 -2.458557,-0.180786c-0.955139,-1.297882 -1.663147,-1.619629 -1.663147,-0.759247c0,0.818787 1.084351,3.037994 2.422424,4.917053c2.701172,3.793488 6.161682,18.391754 5.350891,22.632904c-0.401611,2.100983 0.25061,3.118317 2.820068,4.447052c3.116516,1.611603 3.596558,1.546753 7.628662,-1.193085c2.401733,-1.63205 5.951599,-2.928558 8.026367,-2.928558c2.365662,0.000031 4.849121,-1.053589 6.833313,-2.892395c1.716431,-1.59079 4.462219,-2.892365 6.073975,-2.892365c1.611755,0.000031 4.517517,-0.560577 6.471741,-1.229279c5.342529,-1.828217 14.341003,1.785278 16.775818,6.724792c1.006531,2.042053 2.09906,3.709503 2.458557,3.723938c0.359314,0.014496 1.568909,-1.873657 2.675415,-4.193939c1.484009,-3.112122 2.334839,-3.88382 3.2901,-2.928558c0.9552,0.955261 0.964966,2.105408 -0.036133,4.302429c-1.777649,3.90155 -1.734497,4.578125 0.253052,2.928558c1.190857,-0.988312 1.840698,-0.977295 2.422363,-0.036163c0.438477,0.709534 0.508728,1.588226 0.144653,1.952362c-0.364197,0.364166 0.632446,2.17984 2.205444,4.049347c1.57312,1.869507 2.856201,4.138062 2.856201,5.025513c0,2.521881 7.122009,4.01355 9.472595,1.988525c1.698181,-1.462921 2.185608,-1.382629 4.049316,0.650787c2.728027,2.976257 2.534485,2.989197 5.170166,-0.361572c1.324646,-1.684021 3.245789,-2.758301 4.66394,-2.603149c1.654968,0.181091 2.509277,-0.474945 2.711609,-2.060791c0.372375,-2.918793 2.511475,-9.059052 5.242493,-15.040436c2.72644,-5.971436 5.621948,-29.776611 3.543152,-29.176941c-1.09436,0.315735 -7.086365,-3.934784 -7.086365,-5.025513c0,-0.530365 -1.277283,-2.345703 -2.856201,-4.049347c-1.578857,-1.703674 -2.629395,-3.538879 -2.313904,-4.049347c0.315491,-0.510437 -0.479065,-1.252869 -1.771606,-1.663116c-3.178955,-1.008972 -6.941711,-8.732208 -6.941711,-14.244995c0,-2.981567 -0.750061,-5.158112 -2.241577,-6.507874c-1.236572,-1.11911 -2.60791,-3.674225 -3.037048,-5.6763c-0.428955,-2.002075 -1.052551,-4.135132 -1.410034,-4.736298c-0.872437,-1.467194 -3.509583,5.991119 -3.651611,10.340302c-0.114441,3.499664 -4.008972,13.304962 -5.278625,13.304962c-0.376465,0 -3.537903,-2.105408 -7.050171,-4.700134c-5.968384,-4.409058 -6.362244,-4.957733 -5.640198,-8.387909c0.424988,-2.018677 1.238525,-4.167938 1.807739,-4.77243c1.370422,-1.4552 1.34137,-4.430664 -0.036133,-3.579346c-0.592346,0.366119 -1.360779,0.172363 -1.735413,-0.433838c-0.374695,-0.606232 -1.610657,-1.044769 -2.711609,-0.976196c-1.101074,0.068573 -3.224854,-0.299988 -4.736267,-0.79541c-0.921021,-0.30188 -1.549683,-0.41629 -1.880066,-0.361542z"/>
  <path fill="#9acbff" id="path3042" d="m75.571609,416.445038c-0.16539,0.02533 -0.355476,0.087646 -0.506172,0.180786c-0.602737,0.372498 -0.770218,1.168854 -0.397697,1.771576c0.372513,0.602753 1.168854,0.770233 1.771584,0.397705c0.602737,-0.372498 0.770218,-1.168854 0.397705,-1.771576c-0.279381,-0.452057 -0.769257,-0.654419 -1.265419,-0.578491z"/>
  <path fill="#9acbff" id="path3038" d="m79.042473,418.758942c-0.16539,0.02533 -0.355484,0.087646 -0.506165,0.180786c-0.602737,0.372498 -0.77021,1.168854 -0.397705,1.771576c0.372505,0.602753 1.168846,0.770233 1.771584,0.397705c0.60273,-0.372498 0.77021,-1.168854 0.397705,-1.771576c-0.279381,-0.452057 -0.769249,-0.654419 -1.265419,-0.578491z"/>
  <path fill="#9acbff" id="path3034" d="m111.437202,426.857635c-0.16539,0.02533 -0.355492,0.087646 -0.506172,0.180786c-0.602737,0.372498 -0.770203,1.168854 -0.397697,1.771576c0.372498,0.602722 1.168846,0.770203 1.771584,0.397705c0.602745,-0.372498 0.770226,-1.168854 0.397705,-1.771606c-0.279381,-0.452057 -0.769264,-0.654388 -1.265419,-0.578461z"/>
  <path fill="#9acbff" id="path3024" d="m99.867653,429.171539c-0.165382,0.02533 -0.355484,0.087646 -0.506165,0.180786c-0.602737,0.372498 -0.77021,1.168854 -0.397705,1.771576c0.372505,0.602753 1.168846,0.770233 1.771584,0.397705c0.602745,-0.372498 0.770226,-1.168854 0.397705,-1.771576c-0.279381,-0.452057 -0.769264,-0.654419 -1.265419,-0.578491z"/>
  <path fill="#9acbff" id="path3022" d="m118.378929,433.799347c-0.16539,0.02533 -0.355492,0.087646 -0.506172,0.180786c-0.602737,0.372498 -0.77021,1.168854 -0.397697,1.771576c0.372498,0.602753 1.168839,0.770233 1.771584,0.397705c0.602737,-0.372498 0.770218,-1.168823 0.397705,-1.771576c-0.279381,-0.452057 -0.769257,-0.654419 -1.265419,-0.578491z"/>
  <path fill="#9acbff" id="path3020" d="m134.576294,438.427185c-0.16539,0.025299 -0.355499,0.087646 -0.50618,0.180756c-0.602737,0.372528 -0.770187,1.168884 -0.39769,1.771606c0.372498,0.602722 1.168839,0.770203 1.771591,0.397705c0.602722,-0.372498 0.770218,-1.168854 0.39769,-1.771606c-0.279373,-0.452057 -0.769257,-0.654388 -1.265411,-0.578461z"/>
  <path fill="#9acbff" id="path3018" d="m144.988876,440.741089c-0.16539,0.025299 -0.355484,0.087646 -0.506165,0.180786c-0.602737,0.372498 -0.770203,1.168854 -0.397705,1.771576c0.372498,0.602753 1.168854,0.770233 1.771591,0.397705c0.602737,-0.372498 0.770218,-1.168854 0.397705,-1.771606c-0.279388,-0.452026 -0.769257,-0.654388 -1.265427,-0.578461z"/>
  <path fill="#9acbff" id="path3008" d="m885.439758,480.077545c-0.165405,0.025299 -0.35553,0.087646 -0.506165,0.180756c-0.602783,0.372528 -0.770264,1.168854 -0.397705,1.771606c0.372437,0.602722 1.168823,0.770233 1.771606,0.397705c0.6026,-0.372498 0.770203,-1.168854 0.397705,-1.771606c-0.279419,-0.452057 -0.769348,-0.654388 -1.265442,-0.578461z"/>
  <path fill="#ff7f00" id="path3784" d="m589.34375,252.3125c-10.409851,0.005157 -24.928528,-10.725876 -30.751526,-4.87262c-8.596924,8.641571 -15.819885,0.203491 -24.310974,-1.53363c-11.015503,-2.253555 0.930969,-18.893845 -15.53125,-14.9375c-10.116272,2.431213 -20.820618,7.750107 -30.426208,6.618668c-8.401917,-0.98967 -11.323029,2.752258 -14.784485,8.461884c-4.180206,6.895218 -5.951965,15.443344 -12.543243,22.033554c-7.173645,7.172455 -9.438019,15.882416 -8.773407,26.715698c0.607147,9.896301 -2.91806,17.428345 4.576721,25.985413c6.630035,7.569702 9.298645,22.062958 22.419739,21.620026c10.747131,-0.362793 23.7453,-8.641907 31.60083,-4.001099c5.637146,3.330231 10.906494,1.574738 13.832947,5.721954c5.255737,7.448242 -1.348877,20.174927 6.15094,29.246735c5.966858,7.21756 10.155212,19.21106 4.745483,28.82135c-6.152588,10.929901 1.461243,20.98407 2.793152,31.75885c1.524353,12.331512 12.689575,23.453583 12.052307,34.206787c-0.603149,10.177826 10.266968,7.816986 17.129517,6.702148c11.947876,-1.940948 20.143555,-12.667755 22.882935,-23.251862c2.43811,-9.41983 5.508911,-16.239075 6.378113,-26.54007c0.757507,-8.977203 21.267029,-14.714264 15.942444,-28.767822c-3.94281,-10.406555 -6.05072,-22.072144 2.250183,-31.699768c7.717834,-8.951385 17.588196,-15.965515 22.330505,-27.443878c2.16626,-5.243225 8.722961,-17.963623 7.417725,-17.941498c-6.395264,0.108429 -20.762512,6.873016 -25.363953,-3.966431c-4.476807,-10.545959 -15.190063,-17.509583 -15.914917,-29.707214c-0.580566,-9.769592 -13.455994,-20.123108 -11.885071,-26.813202c0.610535,-2.600342 2.889832,1.210724 0.707764,-3.31517c-0.514648,-1.067566 -0.747925,-0.633606 -1.479492,-1.408936c-0.731567,-0.77533 6.639343,-1.696381 -1.446777,-1.692368z"/>
  <path fill="#ffff00" fill-rule="evenodd" stroke="#000000" stroke-width="1px" id="path4757" d="m569.9375,86.09375c-1.316406,0.042297 -2.646729,0.874786 -3.9375,3.46875c-6.629822,-0.442558 -9.978027,4.304131 -17.84375,6.25c-2.323853,8.61322 -13.269836,12.842781 -19.125,18.6875c8.430237,12.233177 -21.874115,7.890358 -12.1875,26.6875c4.389771,9.755539 17.850525,-11.481522 17.65625,9.28125c5.55011,14.736862 22.578613,-9.071075 14.46875,-16.75c2.192505,-8.961189 12.502686,-23.812782 21.375,-21.4375c-4.05957,6.495354 -18.86377,31.126526 2.46875,22.9375c18.473755,-1.468704 5.779846,7.391098 -5.25,6c2.640259,9.588409 -0.045471,9.526794 -7.03125,10.40625c-1.394592,13.161453 -27.615662,17.161423 -33.5,6.40625c-1.539551,-16.264465 1.356995,14.531326 -10.875,9.59375c-7.336487,6.755814 -17.674713,17.148453 -28.3125,18.46875c8.627228,4.976074 12.686829,27.887268 -6.25,20c-18.661682,0.109116 -5.548798,37.450531 11.90625,22.21875c7.44928,-11.293396 23.24292,-35.237427 37.71875,-18.75c10.017761,1.727966 16.375122,26.085358 16.53125,7.9375c5.509949,5.203415 -26.807373,-25.948715 -7.4375,-18.03125c10.588684,6.1147 21.560181,31.316803 23.78125,24.53125c-1.002991,4.605286 -5.234192,9.77446 3.78125,2.03125c-12.562866,-13.438828 18.364563,-5.518936 12.5,-22.625c5.972656,-13.999817 12.267517,-7.855423 18.875,-3.15625c-4.437927,-4.597595 1.838074,-8.037323 5.96875,-7.65625l3.78125,-27.84375l4.1875,-30.875l2.84375,-21c-3.9104,2.564613 -7.99646,4.397072 -11.78125,2.59375c7.854919,16.216583 -25.131287,-17.879623 -2.65625,-6.9375c29.634155,2.680283 -4.421143,-19.971939 -16.625,-15.6875c-2.993469,-3.214333 2.487,-4.832069 -7.21875,-6.1875c-2.100159,3.030533 -4.916443,-0.655579 -7.8125,-0.5625z"/>
  <path fill="#028902" fill-rule="evenodd" stroke="#000000" stroke-width="1px" id="path5731" d="m295.15625,316.59375c-0.566559,0.000275 -1.85788,0.904266 -3.5625,2.71875c-1.451294,1.54483 -3.340851,2.493134 -4.21875,2.15625c-1.467926,-0.563324 -2.011505,0.343689 -4.59375,7.625c-0.441956,1.246277 -1.242371,0.966583 -3.46875,-1.125c-2.612885,-2.454681 -3.324585,-2.583221 -7.5,-1.46875c-3.263123,0.870972 -4.297791,1.035065 -5.78125,-0.3125l-2.0625,2.65625c0.206329,0.04187 0.410706,0.076019 0.625,0.09375c1.645142,0.136139 3.585632,0.740479 4.3125,1.34375c0.885498,0.734924 1.757416,0.364319 2.6875,-1.125c3.101532,-4.96637 8.363098,2.483185 8.1875,11.59375c-0.078339,4.06488 -0.907349,6.18399 -3.90625,9.84375c-2.102875,2.566315 -4.470703,7.186401 -5.25,10.28125c-1.27951,5.081329 -1.223907,5.760315 0.65625,6.8125c1.967987,1.101318 1.924286,1.263184 -0.375,3.03125l-2.40625,1.875l3.8125,8.6875c2.11264,4.77243 5.108398,12.550354 6.625,17.28125c2.332855,7.27713 3.436584,9.051605 7.15625,11.5625c2.418182,1.632385 6.270508,4.643341 8.5625,6.71875l4.15625,3.78125l-1.4375,19.9375c-0.784637,10.969269 -1.547882,22.812714 -1.71875,26.3125c-0.203033,4.158142 -1.393555,8.540192 -3.46875,12.625c-2.291779,4.511169 -3.002075,7.208313 -2.5,9.71875c0.382629,1.9133 0.072906,5.209656 -0.6875,7.3125c-1.080566,2.98819 -1.08139,4.389801 0.03125,6.46875c1.700012,3.176575 1.200012,15.393738 -0.71875,17.3125c-0.997528,0.997559 -1.509186,0.835876 -2.09375,-0.6875c-0.614685,-1.601807 -1.007782,-1.720154 -1.78125,-0.5c-1.249084,1.970398 -1.278168,3.595093 -0.0625,2.84375c1.328369,-0.821045 7.434052,5.952881 6.59375,7.3125c-0.382568,0.619019 -1.355865,0.862366 -2.21875,0.53125c-1.215302,-0.46637 -1.476929,0.644592 -1.1875,4.9375c0.205475,3.048035 -0.249023,6.257751 -0.96875,7.125c-1.00824,1.214844 -0.914154,1.493469 0.375,1.21875c2.47348,-0.527161 8.262848,3.706177 7.5625,5.53125c-1.084137,2.825195 1.213226,1.617554 2.5625,-1.34375c0.724792,-1.59082 1.850037,-2.875 2.5,-2.875c0.649994,0 1.1875,-1.226563 1.1875,-2.71875c0,-1.492188 1.03595,-3.657227 2.3125,-4.8125c1.27655,-1.155212 2.088837,-2.379944 1.78125,-2.6875c-0.307587,-0.307556 1.055298,-2.374512 3.03125,-4.625c3.493988,-3.979431 3.516998,-4.095459 1.15625,-4.96875c-4.667023,-1.72644 -4.226227,-10.28125 0.53125,-10.28125c1.010284,0 1.59375,-1.293701 1.59375,-3.5625c0,-2.619873 0.630249,-3.77066 2.34375,-4.21875c1.982513,-0.518463 2.081085,-0.801697 0.65625,-1.90625c-0.925293,-0.717346 -1.859406,-2.352356 -2.0625,-3.625c-0.297577,-1.864685 0.278107,-2.3125 2.96875,-2.3125c3.209991,0.000031 4.47229,-1.176971 5.78125,-5.4375c0.422363,-1.374725 2.450317,-2.204498 6.5625,-2.75c9.456146,-1.254425 11.687592,-5.43045 6.34375,-11.78125c-3.476349,-4.131409 -2.724792,-5.362732 1.71875,-2.8125c3.047302,1.748932 3.569061,1.738983 7.28125,-0.03125c4.023804,-1.918762 6.91568,-5.880371 13.03125,-18.0625c2.474548,-4.929352 2.850677,-6.708435 1.90625,-8.78125c-0.651611,-1.430115 -0.837982,-3.176453 -0.40625,-3.875c0.857941,-1.388153 9.10791,-7.1875 10.21875,-7.1875c0.378815,-0.000031 1.262268,-0.786499 1.96875,-1.71875c0.706451,-0.932281 3.36084,-1.878998 5.875,-2.125c4.39624,-0.430115 4.64682,-0.724548 7.71875,-7.84375c2.604767,-6.036591 3.214111,-9.138336 3.25,-16.875c0.030945,-6.66745 0.502625,-9.787292 1.59375,-10.4375c0.853943,-0.508881 3.453583,-3.744141 5.78125,-7.15625c5.582855,-8.183929 5.895416,-14.262665 0.84375,-16.875c-1.870361,-0.967194 -4.072205,-2.717346 -4.90625,-3.90625c-1.115326,-1.589905 -3.406738,-2.310852 -8.625,-2.6875c-6.086151,-0.439301 -7.641815,-1.048065 -10.8125,-4.21875c-4.469025,-4.469025 -6.474091,-4.605316 -9.53125,-0.71875c-1.645264,2.091614 -3.218933,2.843597 -5.375,2.59375c-3.675873,-0.425964 -3.636963,-2.407898 0.0625,-3.28125c1.465973,-0.346069 2.822174,-1.508057 3.03125,-2.59375c0.56311,-2.92392 -1.522217,-2.439148 -5.9375,1.4375c-2.157715,1.894501 -4.240387,3.134613 -4.625,2.75c-1.217926,-1.217926 6.201599,-10.928772 7.6875,-10.0625c0.755829,0.440643 0.335144,-0.394928 -0.9375,-1.84375c-1.272675,-1.448822 -2.193787,-2.933289 -2.0625,-3.34375c1.360718,-4.25415 -6.183777,-10.59375 -12.59375,-10.59375c-3.186798,0 -5.00058,-0.952606 -8.3125,-4.34375c-2.330475,-2.38623 -5.516632,-5.577362 -7.09375,-7.09375c-1.577087,-1.516388 -2.524506,-3.291107 -2.125,-3.9375c0.478394,-0.774109 -1.318848,-0.919464 -5.1875,-0.40625c-3.691772,0.489716 -6.121368,0.326843 -6.59375,-0.4375c-0.413361,-0.668884 -1.346344,-1.118927 -2.09375,-1c-2.308228,0.367218 -7.735107,-2.318451 -7.8125,-3.875c-0.040344,-0.811188 -0.54953,-0.306732 -1.125,1.125c-0.5755,1.431702 -1.52774,2.59375 -2.125,2.59375c-0.59726,-0.000031 -0.845276,0.986664 -0.53125,2.1875c0.823334,3.148438 -1.591125,4.116028 -3.125,1.25c-1.016876,-1.900024 -0.88324,-3.012268 0.5625,-5.21875c1.189636,-1.815613 1.347809,-2.719025 0.78125,-2.71875z"/>
 </g>
</svg>